<?xml version="1.0" encoding="UTF-8"?> <svg xmlns="http://www.w3.org/2000/svg" id="b" viewBox="0 0 300 100"><defs><style>.d{fill:#fff;}.d,.e{stroke-width:0px;}.e{fill:#0077b5;}</style></defs><g id="c"><path class="e" d="m145.93,42.67c0,6.45-4.99,11.5-11.57,11.5h-7.13v12h-5.74V31.17h12.87c6.58,0,11.57,5,11.57,11.5Zm-5.73,0c0-3.55-2.44-6.1-5.83-6.1h-7.13v12.2h7.13c3.39,0,5.83-2.6,5.83-6.1Z"></path><path class="e" d="m163.13,40.72v5.85c-3.54-.25-7.68,1.4-7.68,7v12.6h-5.39v-25h5.39v4.2c1.5-3.4,4.54-4.65,7.68-4.65Z"></path><path class="e" d="m164.57,53.67c0-7.45,5.88-13.15,13.17-13.15s13.16,5.7,13.16,13.15-5.83,13.15-13.16,13.15-13.17-5.75-13.17-13.15Zm20.94,0c0-4.55-3.39-7.9-7.78-7.9s-7.78,3.35-7.78,7.9,3.39,7.9,7.78,7.9,7.78-3.35,7.78-7.9Z"></path><path class="e" d="m213.54,59.12c0,5-4.34,7.7-9.72,7.7-4.99,0-8.58-2.25-10.17-5.85l4.64-2.7c.8,2.25,2.79,3.6,5.54,3.6,2.39,0,4.24-.8,4.24-2.8,0-4.45-13.41-1.95-13.41-10.9,0-4.7,4.04-7.65,9.13-7.65,4.09,0,7.48,1.9,9.22,5.2l-4.54,2.55c-.9-1.95-2.64-2.85-4.69-2.85s-3.64.85-3.64,2.65c0,4.55,13.41,1.8,13.41,11.05Z"></path><path class="e" d="m218.23,41.17h5.39v26c0,6.9-3.39,10.15-10.22,9.65v-5.2c3.29.3,4.84-.95,4.84-4.45v-26Zm-.75-7.2c0-1.9,1.55-3.45,3.44-3.45s3.44,1.55,3.44,3.45-1.55,3.45-3.44,3.45-3.44-1.6-3.44-3.45Z"></path><path class="e" d="m242.11,61.87c2.99,0,5.24-1.35,6.43-3.1l4.44,2.6c-2.29,3.4-6.03,5.45-10.92,5.45-8.23,0-13.56-5.65-13.56-13.15s5.34-13.15,13.17-13.15,12.52,6,12.52,13.2c0,.75-.1,1.55-.2,2.25h-19.85c.85,3.9,3.99,5.9,7.98,5.9Zm6.63-10.3c-.75-4.3-3.89-6.15-7.13-6.15-4.04,0-6.78,2.4-7.53,6.15h14.66Z"></path><path class="e" d="m274.52,66.17l-10.22-11.55v11.55h-5.39V31.17h5.39v21.05l9.67-11.05h6.58l-10.97,12.25,11.37,12.75h-6.43Z"></path><path class="e" d="m291.83,46.37v12c0,3.2,2.09,3.15,6.18,2.95v4.85c-8.28,1-11.57-1.3-11.57-7.8v-12h-4.59v-5.2h4.59v-5.4l5.39-1.6v7h6.18v5.2h-6.18Z"></path><rect class="e" width="100" height="100" rx="3" ry="3"></rect><path class="d" d="m31.3,60.13h-14.9l-2.45,7.05h-6.25l12.7-35h6.9l12.65,35h-6.2l-2.45-7.05Zm-1.9-5.4l-5.55-15.8-5.55,15.8h11.1Z"></path><path class="d" d="m66.65,42.18v25h-5.4v-3.6c-1.9,2.65-4.85,4.25-8.75,4.25-6.8,0-12.45-5.75-12.45-13.15s5.65-13.15,12.45-13.15c3.9,0,6.85,1.6,8.75,4.2v-3.55h5.4Zm-5.4,12.5c0-4.65-3.4-8-7.9-8s-7.9,3.35-7.9,8,3.4,8,7.9,8,7.9-3.35,7.9-8Z"></path><path class="d" d="m92.3,37.68h-9.85v29.5h-5.75v-29.5h-9.9v-5.5h25.5v5.5Z"></path><rect class="d" x="39.95" y="32.17" width="26.92" height="5.5"></rect></g></svg> 