<?xml version="1.0" encoding="UTF-8"?> <svg xmlns="http://www.w3.org/2000/svg" id="Layer_1" viewBox="8.39 9.28 299.61 58.33"><defs><style>.cls-1{fill:none;}.cls-2{fill:#fff;}</style></defs><path class="cls-2" d="M157.85,48.82h-28.1l14.01-29.36,14.09,29.36ZM177,67.53l-27.74-57.91h-10.84l-27.83,57.91h9.94l5.06-10.21h36.5l4.97,10.21h9.94ZM100.41,67.44l3.56-8.49h-18.06c-3.43,0-4.52-1.72-4.52-5.78v-29.18c0-4.06,1.09-5.78,4.52-5.78h36.29l3.56-8.58h-37.05c-11.29,0-17.07,4.7-17.07,15.36v27.1c0,10.66,5.78,15.36,17.07,15.36h11.7ZM68.02,50.63c0-10.75-8.13-17.35-17.44-17.35l-25.3-.09c-4.25,0-7.41-2.98-7.41-7.23s3.07-7.77,7.32-7.77h37.94v-8.49H24.47c-8.95,0-16.08,7.05-16.08,16.08,0,10.48,7.77,16.71,16.71,16.71h25.39c4.61.09,8.31,3.43,8.31,8.04s-3.89,8.31-8.49,8.31H11.91v8.77h39.21c9.31,0,16.9-7.68,16.9-16.99"></path><rect class="cls-1" width="184" height="122"></rect><path class="cls-2" d="M181.53,25.56c-3.42,0-6.09-1.7-6.2-4.91h4.12c.11,1.22.88,1.81,1.97,1.81s1.86-.57,1.86-1.49c0-2.94-7.95-1.36-7.9-7,0-3.01,2.47-4.69,5.8-4.69s5.8,1.72,5.95,4.75h-4.19c-.07-1.02-.79-1.63-1.83-1.65-.93-.02-1.63.45-1.63,1.45,0,2.76,7.86,1.52,7.86,6.84,0,2.67-2.08,4.89-5.8,4.89Z"></path><path class="cls-2" d="M203.97,12.61h-5.86v3.21h5.18v2.99h-5.18v3.49h5.86v3.1h-9.73v-15.89h9.73v3.1Z"></path><path class="cls-2" d="M220.91,22.6h-5.93l-.95,2.81h-4.05l5.75-15.89h4.48l5.75,15.89h-4.1l-.95-2.81ZM217.94,13.79l-1.95,5.82h3.92l-1.97-5.82Z"></path><path class="cls-2" d="M232.21,9.51h10.35v3.1h-6.47v3.35h4.84v3.01h-4.84v6.43h-3.87v-15.89Z"></path><path class="cls-2" d="M256.62,25.56c-4.51,0-8.17-3.37-8.17-8.15s3.67-8.13,8.17-8.13,8.13,3.35,8.13,8.13-3.62,8.15-8.13,8.15ZM256.62,22.03c2.54,0,4.19-1.84,4.19-4.62s-1.65-4.62-4.19-4.62-4.21,1.79-4.21,4.62,1.63,4.62,4.21,4.62Z"></path><path class="cls-2" d="M278.93,25.56c-4.51,0-8.17-3.37-8.17-8.15s3.67-8.13,8.17-8.13,8.13,3.35,8.13,8.13-3.62,8.15-8.13,8.15ZM278.93,22.03c2.54,0,4.19-1.84,4.19-4.62s-1.65-4.62-4.19-4.62-4.21,1.79-4.21,4.62,1.63,4.62,4.21,4.62Z"></path><path class="cls-2" d="M308,17.46c0,4.71-3.26,7.95-8.33,7.95h-5.95v-15.89h5.95c5.07,0,8.33,3.21,8.33,7.95ZM299.42,22.05c2.92,0,4.64-1.68,4.64-4.6s-1.72-4.64-4.64-4.64h-1.83v9.24h1.83Z"></path><path class="cls-2" d="M189.56,33.17c2.65,0,4.62,1.33,5.47,3.6h-1.39c-.66-1.58-2.06-2.57-4.08-2.57-2.6,0-4.59,1.92-4.59,5.03s1.99,5.01,4.59,5.01c2.02,0,3.42-.99,4.08-2.53h1.39c-.85,2.24-2.82,3.57-5.47,3.57-3.3,0-5.81-2.48-5.81-6.05s2.51-6.07,5.81-6.07Z"></path><path class="cls-2" d="M206.13,45.31c-3.33,0-5.88-2.5-5.88-6.07s2.55-6.07,5.88-6.07,5.88,2.51,5.88,6.07-2.53,6.07-5.88,6.07ZM206.13,44.27c2.63,0,4.66-1.92,4.66-5.03s-2.02-5.01-4.66-5.01-4.66,1.9-4.66,5.01,2.02,5.03,4.66,5.03Z"></path><path class="cls-2" d="M221.14,33.31c2.75,0,4.04,1.5,4.04,3.45,0,1.63-.92,3.01-2.92,3.38l3.06,5.05h-1.43l-2.94-4.96h-2.19v4.96h-1.19v-11.88h3.57ZM221.14,34.31h-2.38v4.94h2.4c1.94,0,2.8-1.05,2.8-2.5s-.82-2.45-2.82-2.45Z"></path><path class="cls-2" d="M234.53,40.12h-2.4v5.06h-1.19v-11.88h3.59c2.75,0,4.01,1.46,4.01,3.41s-1.22,3.4-4.01,3.4ZM234.53,39.1c2,0,2.79-.92,2.79-2.38s-.78-2.41-2.79-2.41h-2.4v4.79h2.4Z"></path><path class="cls-2" d="M249.27,45.31c-3.33,0-5.88-2.5-5.88-6.07s2.55-6.07,5.88-6.07,5.88,2.51,5.88,6.07-2.53,6.07-5.88,6.07ZM249.27,44.27c2.63,0,4.66-1.92,4.66-5.03s-2.02-5.01-4.66-5.01-4.66,1.9-4.66,5.01,2.02,5.03,4.66,5.03Z"></path><path class="cls-2" d="M264.27,33.31c2.75,0,4.04,1.5,4.04,3.45,0,1.63-.92,3.01-2.92,3.38l3.06,5.05h-1.43l-2.94-4.96h-2.19v4.96h-1.19v-11.88h3.57ZM264.27,34.31h-2.38v4.94h2.4c1.94,0,2.8-1.05,2.8-2.5s-.82-2.45-2.82-2.45Z"></path><path class="cls-2" d="M280.96,42.37h-5.4l-1.04,2.82h-1.26l4.33-11.72h1.34l4.32,11.72h-1.26l-1.04-2.82ZM278.26,34.96l-2.34,6.42h4.69l-2.34-6.42Z"></path><path class="cls-2" d="M287.71,33.31h7.8v.99h-3.3v10.89h-1.19v-10.89h-3.31v-.99Z"></path><path class="cls-2" d="M307,34.28h-5.01v4.43h4.5v.99h-4.5v4.5h5.01v.99h-6.2v-11.89h6.2v.99Z"></path><path class="cls-2" d="M200.58,64.68h-4.64l-.74,2.19h-3.17l4.49-12.42h3.5l4.49,12.42h-3.2l-.74-2.19ZM198.27,57.8l-1.52,4.55h3.06l-1.54-4.55Z"></path><path class="cls-2" d="M220.58,60.67c0,3.68-2.55,6.21-6.51,6.21h-4.65v-12.42h4.65c3.96,0,6.51,2.51,6.51,6.21ZM213.88,64.26c2.28,0,3.63-1.31,3.63-3.59s-1.34-3.63-3.63-3.63h-1.43v7.22h1.43Z"></path><path class="cls-2" d="M234.28,54.46h3.2l-4.41,12.42h-3.79l-4.41-12.42h3.22l3.08,9.38,3.1-9.38Z"></path><path class="cls-2" d="M242.28,54.46h3.03v12.42h-3.03v-12.42Z"></path><path class="cls-2" d="M255.54,67c-2.67,0-4.76-1.33-4.85-3.84h3.22c.09.96.69,1.42,1.54,1.42s1.45-.44,1.45-1.17c0-2.3-6.21-1.06-6.17-5.47,0-2.35,1.93-3.66,4.53-3.66s4.53,1.34,4.65,3.72h-3.27c-.05-.8-.62-1.27-1.43-1.29-.73-.02-1.27.35-1.27,1.13,0,2.16,6.14,1.18,6.14,5.34,0,2.09-1.63,3.82-4.53,3.82Z"></path><path class="cls-2" d="M271.34,67c-3.52,0-6.39-2.64-6.39-6.37s2.87-6.35,6.39-6.35,6.35,2.62,6.35,6.35-2.83,6.37-6.35,6.37ZM271.34,64.24c1.98,0,3.27-1.43,3.27-3.61s-1.29-3.61-3.27-3.61-3.29,1.4-3.29,3.61,1.27,3.61,3.29,3.61Z"></path><path class="cls-2" d="M287.97,54.46c3.04,0,4.56,1.75,4.56,3.91,0,1.56-.85,3.03-2.76,3.59l2.87,4.92h-3.42l-2.58-4.69h-.73v4.69h-3.03v-12.42h5.08ZM287.8,56.97h-1.88v3.08h1.88c1.13,0,1.66-.58,1.66-1.56,0-.92-.53-1.52-1.66-1.52Z"></path><path class="cls-2" d="M302.47,67c-2.67,0-4.76-1.33-4.85-3.84h3.22c.09.96.69,1.42,1.54,1.42s1.45-.44,1.45-1.17c0-2.3-6.21-1.06-6.17-5.47,0-2.35,1.93-3.66,4.53-3.66s4.53,1.34,4.65,3.72h-3.27c-.05-.8-.62-1.27-1.43-1.29-.73-.02-1.27.35-1.27,1.13,0,2.16,6.14,1.18,6.14,5.34,0,2.09-1.63,3.82-4.53,3.82Z"></path></svg> 