<svg xmlns="http://www.w3.org/2000/svg" xmlns:xlink="http://www.w3.org/1999/xlink" width="500" zoomAndPan="magnify" viewBox="0 0 375 187.499995" height="250" preserveAspectRatio="xMidYMid meet" version="1.0"><defs><g/><clipPath id="2d55f91a02"><rect x="0" width="179" y="0" height="187"/></clipPath><clipPath id="eb3a9469aa"><rect x="0" width="88" y="0" height="187"/></clipPath><clipPath id="d816000088"><rect x="0" width="163" y="0" height="187"/></clipPath></defs><g transform="matrix(1, 0, 0, 1, 11, 0)"><g clip-path="url(#2d55f91a02)"><g fill="#000000" fill-opacity="1"><g transform="translate(2.26661, 137.312446)"><g><path d="M 46.9375 1.96875 C 38.789062 1.96875 31.597656 0.328125 25.359375 -2.953125 C 19.128906 -6.234375 14.257812 -10.800781 10.75 -16.65625 C 7.238281 -22.507812 5.484375 -29.273438 5.484375 -36.953125 C 5.484375 -44.640625 7.238281 -51.382812 10.75 -57.1875 C 14.257812 -63 19.128906 -67.546875 25.359375 -70.828125 C 31.597656 -74.109375 38.789062 -75.75 46.9375 -75.75 C 55.082031 -75.75 62.269531 -74.109375 68.5 -70.828125 C 74.738281 -67.546875 79.585938 -63 83.046875 -57.1875 C 86.515625 -51.382812 88.25 -44.640625 88.25 -36.953125 C 88.25 -29.273438 86.515625 -22.507812 83.046875 -16.65625 C 79.585938 -10.800781 74.738281 -6.234375 68.5 -2.953125 C 62.269531 0.328125 55.082031 1.96875 46.9375 1.96875 Z M 26.5625 -36.953125 C 26.5625 -30.960938 28.457031 -26.046875 32.25 -22.203125 C 36.039062 -18.359375 40.9375 -16.4375 46.9375 -16.4375 C 52.9375 -16.4375 57.804688 -18.359375 61.546875 -22.203125 C 65.296875 -26.046875 67.171875 -30.960938 67.171875 -36.953125 C 67.171875 -43.046875 65.296875 -47.988281 61.546875 -51.78125 C 57.804688 -55.582031 52.9375 -57.484375 46.9375 -57.484375 C 40.9375 -57.484375 36.039062 -55.582031 32.25 -51.78125 C 28.457031 -47.988281 26.5625 -43.046875 26.5625 -36.953125 Z M 26.5625 -36.953125 "/></g></g></g><g fill="#000000" fill-opacity="1"><g transform="translate(88.823279, 137.312446)"><g><path d="M 45.53125 1.96875 C 37.664062 1.96875 30.707031 0.328125 24.65625 -2.953125 C 18.613281 -6.234375 13.90625 -10.800781 10.53125 -16.65625 C 7.164062 -22.507812 5.484375 -29.273438 5.484375 -36.953125 C 5.484375 -44.640625 7.191406 -51.382812 10.609375 -57.1875 C 14.023438 -63 18.753906 -67.546875 24.796875 -70.828125 C 30.847656 -74.109375 37.851562 -75.75 45.8125 -75.75 C 54.25 -75.75 61.535156 -73.875 67.671875 -70.125 C 73.804688 -66.375 78.488281 -61.125 81.71875 -54.375 C 84.945312 -47.632812 86.328125 -39.769531 85.859375 -30.78125 L 26.703125 -30.78125 C 27.734375 -25.71875 29.976562 -21.847656 33.4375 -19.171875 C 36.90625 -16.503906 41.078125 -15.171875 45.953125 -15.171875 C 49.515625 -15.171875 52.769531 -15.847656 55.71875 -17.203125 C 58.664062 -18.566406 61.03125 -20.46875 62.8125 -22.90625 L 84.453125 -22.90625 C 81.273438 -15.132812 76.265625 -9.046875 69.421875 -4.640625 C 62.578125 -0.234375 54.613281 1.96875 45.53125 1.96875 Z M 26.84375 -44.265625 L 65.203125 -44.265625 C 63.984375 -48.765625 61.710938 -52.300781 58.390625 -54.875 C 55.066406 -57.445312 50.921875 -58.734375 45.953125 -58.734375 C 41.265625 -58.734375 37.210938 -57.445312 33.796875 -54.875 C 30.378906 -52.300781 28.0625 -48.765625 26.84375 -44.265625 Z M 26.84375 -44.265625 "/></g></g></g></g></g><g transform="matrix(1, 0, 0, 1, 266, 0)"><g clip-path="url(#eb3a9469aa)"><g fill="#000000" fill-opacity="1"><g transform="translate(1.909049, 137.307979)"><g><path d="M 10.6875 0 L 10.6875 -73.796875 L 26.5625 -73.796875 L 28.8125 -65.5 C 31.8125 -68.96875 35.441406 -71.546875 39.703125 -73.234375 C 43.972656 -74.921875 48.539062 -75.765625 53.40625 -75.765625 C 63.0625 -75.765625 70.628906 -72.765625 76.109375 -66.765625 C 81.597656 -60.765625 84.34375 -52.660156 84.34375 -42.453125 L 84.34375 0 L 62.96875 0 L 62.96875 -40.203125 C 62.96875 -45.640625 61.675781 -49.878906 59.09375 -52.921875 C 56.519531 -55.960938 52.941406 -57.484375 48.359375 -57.484375 C 43.484375 -57.484375 39.546875 -55.796875 36.546875 -52.421875 C 33.546875 -49.054688 32.046875 -44.46875 32.046875 -38.65625 L 32.046875 0 Z M 10.6875 0 "/></g></g></g></g></g><g transform="matrix(1, 0, 0, 1, 143, 0)"><g clip-path="url(#d816000088)"><g fill="#000000" fill-opacity="1"><g transform="translate(60.032633, 151.220211)"><g><path d="M 42.71875 -15.90625 C 35.46875 -12.84375 28.421875 -11.644531 21.578125 -12.3125 C 14.734375 -12.988281 8.613281 -15.367188 3.21875 -19.453125 C -2.164062 -23.535156 -6.351562 -29.113281 -9.34375 -36.1875 C -12.332031 -43.269531 -13.378906 -50.148438 -12.484375 -56.828125 C -11.585938 -63.503906 -8.992188 -69.53125 -4.703125 -74.90625 C -0.421875 -80.289062 5.390625 -84.53125 12.734375 -87.625 C 20.492188 -90.90625 27.929688 -92.015625 35.046875 -90.953125 C 42.160156 -89.890625 48.519531 -86.878906 54.125 -81.921875 C 59.726562 -76.972656 64.066406 -70.257812 67.140625 -61.78125 L 12.609375 -38.75 C 15.535156 -34.488281 19.113281 -31.800781 23.34375 -30.6875 C 27.582031 -29.582031 31.945312 -29.976562 36.4375 -31.875 C 39.71875 -33.257812 42.453125 -35.148438 44.640625 -37.546875 C 46.835938 -39.941406 48.28125 -42.609375 48.96875 -45.546875 L 68.921875 -53.96875 C 69.003906 -45.570312 66.75 -38.015625 62.15625 -31.296875 C 57.5625 -24.578125 51.082031 -19.445312 42.71875 -15.90625 Z M 7.5 -51.25 L 42.84375 -66.171875 C 39.96875 -69.847656 36.5 -72.222656 32.4375 -73.296875 C 28.375 -74.367188 24.054688 -73.941406 19.484375 -72.015625 C 15.171875 -70.191406 11.9375 -67.425781 9.78125 -63.71875 C 7.625 -60.019531 6.863281 -55.863281 7.5 -51.25 Z M 7.5 -51.25 "/></g></g></g></g></g></svg>