<svg xmlns="http://www.w3.org/2000/svg" xmlns:xlink="http://www.w3.org/1999/xlink" width="607" zoomAndPan="magnify" viewBox="0 0 455.25 298.499991" height="398" preserveAspectRatio="xMidYMid meet" version="1.0"><defs><g/><clipPath id="fead511365"><rect x="0" width="179" y="0" height="205"/></clipPath><clipPath id="77762f6ae6"><rect x="0" width="88" y="0" height="205"/></clipPath><clipPath id="116801ee7f"><rect x="0" width="163" y="0" height="224"/></clipPath></defs><g transform="matrix(1, 0, 0, 1, 43, 46)"><g clip-path="url(#fead511365)"><g fill="#ffffff" fill-opacity="1"><g transform="translate(2.098152, 150.50171)"><g><path d="M 46.984375 1.96875 C 38.828125 1.96875 31.628906 0.328125 25.390625 -2.953125 C 19.148438 -6.234375 14.269531 -10.804688 10.75 -16.671875 C 7.238281 -22.535156 5.484375 -29.3125 5.484375 -37 C 5.484375 -44.6875 7.238281 -51.4375 10.75 -57.25 C 14.269531 -63.0625 19.148438 -67.609375 25.390625 -70.890625 C 31.628906 -74.179688 38.828125 -75.828125 46.984375 -75.828125 C 55.140625 -75.828125 62.335938 -74.179688 68.578125 -70.890625 C 74.816406 -67.609375 79.671875 -63.0625 83.140625 -57.25 C 86.609375 -51.4375 88.34375 -44.6875 88.34375 -37 C 88.34375 -29.3125 86.609375 -22.535156 83.140625 -16.671875 C 79.671875 -10.804688 74.816406 -6.234375 68.578125 -2.953125 C 62.335938 0.328125 55.140625 1.96875 46.984375 1.96875 Z M 26.59375 -37 C 26.59375 -31 28.488281 -26.070312 32.28125 -22.21875 C 36.082031 -18.375 40.984375 -16.453125 46.984375 -16.453125 C 52.984375 -16.453125 57.859375 -18.375 61.609375 -22.21875 C 65.359375 -26.070312 67.234375 -31 67.234375 -37 C 67.234375 -43.09375 65.359375 -48.035156 61.609375 -51.828125 C 57.859375 -55.628906 52.984375 -57.53125 46.984375 -57.53125 C 40.984375 -57.53125 36.082031 -55.628906 32.28125 -51.828125 C 28.488281 -48.035156 26.59375 -43.09375 26.59375 -37 Z M 26.59375 -37 "/></g></g></g><g fill="#ffffff" fill-opacity="1"><g transform="translate(88.740509, 150.50171)"><g><path d="M 45.578125 1.96875 C 37.703125 1.96875 30.738281 0.328125 24.6875 -2.953125 C 18.632812 -6.234375 13.921875 -10.804688 10.546875 -16.671875 C 7.171875 -22.535156 5.484375 -29.3125 5.484375 -37 C 5.484375 -44.6875 7.191406 -51.4375 10.609375 -57.25 C 14.035156 -63.0625 18.773438 -67.609375 24.828125 -70.890625 C 30.878906 -74.179688 37.890625 -75.828125 45.859375 -75.828125 C 54.296875 -75.828125 61.585938 -73.945312 67.734375 -70.1875 C 73.878906 -66.4375 78.566406 -61.1875 81.796875 -54.4375 C 85.035156 -47.6875 86.421875 -39.8125 85.953125 -30.8125 L 26.734375 -30.8125 C 27.765625 -25.738281 30.015625 -21.863281 33.484375 -19.1875 C 36.953125 -16.519531 41.125 -15.1875 46 -15.1875 C 49.5625 -15.1875 52.816406 -15.863281 55.765625 -17.21875 C 58.722656 -18.582031 61.09375 -20.484375 62.875 -22.921875 L 84.546875 -22.921875 C 81.359375 -15.140625 76.335938 -9.046875 69.484375 -4.640625 C 62.640625 -0.234375 54.671875 1.96875 45.578125 1.96875 Z M 26.875 -44.3125 L 65.265625 -44.3125 C 64.046875 -48.8125 61.769531 -52.347656 58.4375 -54.921875 C 55.113281 -57.503906 50.96875 -58.796875 46 -58.796875 C 41.3125 -58.796875 37.253906 -57.503906 33.828125 -54.921875 C 30.410156 -52.347656 28.09375 -48.8125 26.875 -44.3125 Z M 26.875 -44.3125 "/></g></g></g></g></g><g transform="matrix(1, 0, 0, 1, 298, 46)"><g clip-path="url(#77762f6ae6)"><g fill="#ffffff" fill-opacity="1"><g transform="translate(1.992668, 150.497241)"><g><path d="M 10.6875 0 L 10.6875 -73.875 L 26.59375 -73.875 L 28.84375 -65.5625 C 31.84375 -69.039062 35.476562 -71.625 39.75 -73.3125 C 44.019531 -75 48.59375 -75.84375 53.46875 -75.84375 C 63.125 -75.84375 70.695312 -72.835938 76.1875 -66.828125 C 81.675781 -60.828125 84.421875 -52.71875 84.421875 -42.5 L 84.421875 0 L 63.03125 0 L 63.03125 -40.234375 C 63.03125 -45.679688 61.738281 -49.925781 59.15625 -52.96875 C 56.582031 -56.019531 53 -57.546875 48.40625 -57.546875 C 43.519531 -57.546875 39.578125 -55.859375 36.578125 -52.484375 C 33.578125 -49.109375 32.078125 -44.507812 32.078125 -38.6875 L 32.078125 0 Z M 10.6875 0 "/></g></g></g></g></g><g transform="matrix(1, 0, 0, 1, 175, 37)"><g clip-path="url(#116801ee7f)"><g fill="#ffffff" fill-opacity="1"><g transform="translate(60.052041, 173.423238)"><g><path d="M 42.765625 -15.921875 C 35.503906 -12.859375 28.445312 -11.660156 21.59375 -12.328125 C 14.75 -12.992188 8.628906 -15.375 3.234375 -19.46875 C -2.160156 -23.5625 -6.351562 -29.144531 -9.34375 -36.21875 C -12.34375 -43.3125 -13.394531 -50.203125 -12.5 -56.890625 C -11.601562 -63.578125 -9.007812 -69.609375 -4.71875 -74.984375 C -0.425781 -80.359375 5.394531 -84.597656 12.75 -87.703125 C 20.519531 -90.992188 27.96875 -92.101562 35.09375 -91.03125 C 42.21875 -89.96875 48.582031 -86.957031 54.1875 -82 C 59.789062 -77.039062 64.128906 -70.320312 67.203125 -61.84375 L 12.640625 -38.796875 C 15.554688 -34.523438 19.128906 -31.832031 23.359375 -30.71875 C 27.597656 -29.601562 31.96875 -30 36.46875 -31.90625 C 39.75 -33.289062 42.484375 -35.1875 44.671875 -37.59375 C 46.867188 -40 48.316406 -42.664062 49.015625 -45.59375 L 68.96875 -54.03125 C 69.070312 -45.613281 66.820312 -38.039062 62.21875 -31.3125 C 57.625 -24.59375 51.140625 -19.460938 42.765625 -15.921875 Z M 7.5 -51.28125 L 42.890625 -66.234375 C 40.015625 -69.898438 36.539062 -72.273438 32.46875 -73.359375 C 28.394531 -74.441406 24.070312 -74.015625 19.5 -72.078125 C 15.164062 -70.242188 11.925781 -67.472656 9.78125 -63.765625 C 7.632812 -60.066406 6.875 -55.90625 7.5 -51.28125 Z M 7.5 -51.28125 "/></g></g></g></g></g></svg>