<svg xmlns="http://www.w3.org/2000/svg" width="261" height="173" version="1.0" viewBox="0 0 195.75 129.75"><defs><clipPath id="a"><path d="M160.855 49.426h15.66v17.761h-15.66Zm0 0"/></clipPath><clipPath id="c"><path d="M.855.426h15.66v17.761H.856Zm0 0"/></clipPath><clipPath id="b"><path d="M0 0h17v19H0z"/></clipPath><clipPath id="d"><path d="M171.063 50.926h12.484V67.21h-12.484Zm0 0"/></clipPath><clipPath id="e"><path d="M175.277 50.926h8.27l-4.219 16.261h-8.266Zm0 0"/></clipPath><clipPath id="g"><path d="M.063.926h12.484V17.21H.062Zm0 0"/></clipPath><clipPath id="h"><path d="M4.277.926h8.27L8.328 17.187H.063Zm0 0"/></clipPath><clipPath id="f"><path d="M0 0h13v18H0z"/></clipPath></defs><path d="M37.778 86.039c-3.543 0-6.668-.715-9.375-2.141-2.7-1.426-4.813-3.41-6.344-5.953-1.524-2.54-2.281-5.477-2.281-8.813 0-3.332.757-6.257 2.28-8.78 1.532-2.52 3.645-4.49 6.345-5.907 2.707-1.426 5.832-2.14 9.375-2.14 3.539 0 6.66.714 9.359 2.14 2.707 1.418 4.812 3.387 6.312 5.906 1.508 2.524 2.266 5.45 2.266 8.781 0 3.336-.758 6.274-2.266 8.813-1.5 2.543-3.605 4.527-6.312 5.953-2.7 1.426-5.82 2.14-9.36 2.14Zm-8.844-16.907c0 2.606.82 4.743 2.469 6.407 1.644 1.668 3.77 2.5 6.375 2.5 2.601 0 4.718-.832 6.343-2.5 1.625-1.664 2.438-3.801 2.438-6.407 0-2.644-.813-4.789-2.438-6.437-1.625-1.645-3.742-2.469-6.343-2.469-2.606 0-4.73.824-6.375 2.469-1.649 1.648-2.47 3.793-2.47 6.437Zm45.8 16.907c-3.418 0-6.438-.715-9.063-2.141-2.625-1.426-4.671-3.41-6.14-5.953-1.461-2.54-2.188-5.477-2.188-8.813 0-3.332.739-6.257 2.22-8.78 1.487-2.52 3.546-4.49 6.17-5.907 2.626-1.426 5.665-2.14 9.126-2.14 3.656 0 6.812.812 9.469 2.437 2.664 1.625 4.703 3.902 6.11 6.828 1.405 2.93 2.003 6.344 1.796 10.25H66.562c.445 2.2 1.422 3.875 2.922 5.031 1.508 1.156 3.32 1.734 5.437 1.734 1.54 0 2.954-.289 4.235-.875 1.281-.593 2.305-1.414 3.078-2.468h9.39c-1.374 3.375-3.546 6.023-6.515 7.937-2.969 1.906-6.43 2.86-10.375 2.86Zm-8.11-20.079h16.641c-.523-1.945-1.508-3.476-2.953-4.593-1.437-1.125-3.234-1.688-5.39-1.688-2.044 0-3.81.563-5.297 1.688-1.48 1.117-2.48 2.648-3 4.593Zm66.009 19.22V53.147h6.891l.969 3.61a11.942 11.942 0 0 1 4.734-3.36c1.852-.727 3.836-1.094 5.953-1.094 4.188 0 7.47 1.305 9.844 3.906 2.375 2.594 3.563 6.11 3.563 10.547V85.18h-9.266V67.726c0-2.351-.563-4.191-1.688-5.516-1.117-1.32-2.668-1.984-4.656-1.984-2.117 0-3.824.734-5.125 2.203-1.304 1.461-1.953 3.45-1.953 5.969v16.781Zm0 0"/><g clip-path="url(#a)"><g clip-path="url(#b)" transform="translate(160 49)"><g clip-path="url(#c)"><path fill="#fff" d="M.855.426h15.66v17.738H.856Zm0 0"/></g></g></g><g clip-path="url(#d)"><g clip-path="url(#e)"><g clip-path="url(#f)" transform="translate(171 50)"><g clip-path="url(#g)"><g clip-path="url(#h)"><path fill="#e6ff4b" d="M.063.926h12.484V17.21H.062Zm0 0"/></g></g></g></g></g><path d="M118.374 84.323c-3.149 1.325-6.204 1.84-9.172 1.547-2.97-.289-5.625-1.32-7.97-3.093-2.331-1.77-4.148-4.192-5.452-7.266-1.29-3.07-1.739-6.055-1.344-8.953.387-2.906 1.512-5.52 3.375-7.844 1.855-2.332 4.375-4.172 7.563-5.516 3.363-1.425 6.585-1.91 9.671-1.453 3.094.461 5.852 1.766 8.282 3.922 2.425 2.149 4.304 5.059 5.64 8.735l-23.64 9.984c1.257 1.867 2.804 3.039 4.64 3.516 1.844.468 3.739.293 5.688-.532 1.426-.601 2.613-1.422 3.562-2.453.946-1.039 1.57-2.195 1.875-3.469l8.657-3.656c.039 3.649-.938 6.93-2.938 9.844-1.992 2.918-4.805 5.148-8.437 6.687ZM103.092 68.98l15.328-6.485c-1.23-1.582-2.73-2.609-4.5-3.078-1.761-.469-3.636-.285-5.625.547-1.875.793-3.28 1.996-4.218 3.61-.93 1.605-1.258 3.406-.985 5.406Zm0 0"/></svg>